<svg width="33" height="31" viewBox="0 0 33 31" fill="none" xmlns="http://www.w3.org/2000/svg">
<path d="M12.1349 29.3524C12.2659 28.6319 12.3969 27.9114 12.5279 27.1254C12.5934 26.6668 12.6589 26.2738 12.7899 25.8153C12.8554 25.6188 12.7899 25.4223 12.6589 25.2913C11.8074 24.5053 11.0214 23.7192 10.2353 22.9332C10.0388 22.7367 9.84232 22.5402 9.97333 22.2127C10.1043 21.8852 10.3663 21.8197 10.6283 21.7542C11.7419 21.6232 12.8554 21.4267 13.969 21.2957C14.1655 21.2957 14.2965 21.1647 14.4275 20.9681C14.886 19.9201 15.41 18.9376 15.934 17.8895C16.065 17.6275 16.196 17.431 16.5235 17.431C16.8511 17.431 16.9821 17.6275 17.1131 17.8895C17.6371 18.8721 18.0956 19.9201 18.6196 20.9026C18.7506 21.1647 18.8816 21.2302 19.1436 21.2302C20.2572 21.3612 21.4362 21.5577 22.5497 21.6887C22.8118 21.7542 23.0738 21.8197 23.1393 22.1472C23.1393 22.3437 23.0738 22.6057 22.9428 22.8022C22.1567 23.6537 21.3052 24.4398 20.5192 25.2258C20.3227 25.4223 20.3227 25.5533 20.3227 25.8153C20.5192 26.9288 20.7157 28.0424 20.9122 29.2214C20.9777 29.4834 20.9122 29.7454 20.7157 29.8764C20.5192 30.073 20.2572 30.0074 19.9952 29.8764C19.0126 29.3524 17.9646 28.8284 16.9821 28.3044C16.7201 28.1734 16.5235 28.1734 16.2615 28.3044C15.279 28.8284 14.2965 29.3524 13.2484 29.8764C12.5934 30.1385 12.1349 29.9419 12.1349 29.3524ZM19.3401 28.3699C19.2746 28.1734 19.2746 27.9769 19.2746 27.8459C19.1436 27.0599 19.0126 26.2738 18.8816 25.5533C18.8161 25.2913 18.8816 25.0293 19.1436 24.8328C19.6677 24.2433 20.3227 23.5882 20.9122 22.9987C20.9777 22.9332 21.0432 22.8677 21.1087 22.8022C20.1262 22.6712 19.2091 22.5402 18.2921 22.4092C17.9646 22.3437 17.7681 22.2127 17.7026 21.9507C17.5061 21.5577 17.3096 21.1647 17.1786 20.8371C16.9821 20.3786 16.7201 19.9201 16.458 19.3961C16.1305 20.1166 15.803 20.7061 15.4755 21.3612C14.886 22.6057 15.0825 22.3437 13.9035 22.5402C13.838 22.5402 13.707 22.5402 13.6414 22.6057C12.9864 22.6712 12.3969 22.8022 11.8074 22.8677C12.3314 23.3917 12.7899 23.9812 13.3139 24.4398C13.969 24.9638 14.1 25.4878 13.9035 26.2738C13.707 26.9943 13.6414 27.6494 13.5104 28.4354C14.1655 28.1079 14.6895 27.7804 15.279 27.5184C16.6545 26.7978 16.196 26.7978 17.6371 27.5184C18.1611 27.7149 18.6851 28.0424 19.3401 28.3699Z" fill="#FF5ADB"/>
<path d="M16.2616 8.32617C17.5061 8.45718 18.6852 8.45718 19.7987 8.65368C21.9603 9.0467 23.2703 10.4222 23.7944 12.5183C23.9909 13.3698 24.0564 14.2869 24.1219 15.2039C24.3184 16.6449 24.4494 18.0205 24.6459 19.4615C24.7114 19.8546 24.5149 20.1821 24.1874 20.2476C23.8599 20.3131 23.5978 20.0511 23.5323 19.5925C23.2703 17.431 23.0083 15.3349 22.7463 13.1733C22.4843 11.2083 21.1743 9.96373 19.2092 9.70172C17.2441 9.43971 15.2136 9.50521 13.2485 9.70172C11.6109 9.89822 10.3664 11.0118 9.97339 12.7803C9.77689 13.5663 9.77689 14.3524 9.71138 15.0729C9.51488 16.5794 9.38387 18.086 9.18737 19.5925C9.12186 20.0511 8.85986 20.2476 8.53234 20.1821C8.20483 20.1166 8.00833 19.8546 8.07383 19.396C8.27034 17.3 8.53234 15.2039 8.72885 13.1078C8.99086 10.8153 10.3664 9.0467 12.528 8.58818C13.707 8.52268 15.0826 8.45718 16.2616 8.32617Z" fill="#FF5ADB"/>
<path d="M1.7201 29.3524C1.8511 28.6319 1.9821 27.8459 2.11311 27.0598C2.17861 26.7323 2.11311 26.4703 1.8511 26.2083C1.32708 25.7498 0.803065 25.1603 0.279048 24.7018C0.0825412 24.5053 -0.0484631 24.3087 0.0170391 24.0467C0.148043 23.6537 0.34455 23.5882 0.672061 23.5882C1.45809 23.4572 2.30962 23.3917 3.09564 23.2607C3.22665 23.2607 3.35765 23.1297 3.42315 22.9987C3.81617 22.2782 4.14368 21.5577 4.47119 20.8371C4.60219 20.5096 4.7987 20.3131 5.12621 20.3131C5.45372 20.3131 5.58472 20.5096 5.71573 20.7716C6.04324 21.4922 6.43625 22.2127 6.76376 22.9332C6.82927 23.1297 6.96027 23.1952 7.15678 23.2607C8.00831 23.3917 8.79433 23.4572 9.58036 23.6537C9.77687 23.7192 10.0389 23.8502 10.1044 24.0467C10.1699 24.2432 10.1044 24.5052 9.90787 24.6363C9.31835 25.2258 8.72883 25.8153 8.13931 26.4048C8.00831 26.5358 8.00831 26.7323 8.00831 26.8633C8.13931 27.7149 8.27032 28.5009 8.40132 29.2869C8.40132 29.4834 8.33582 29.7454 8.20481 29.8764C8.00831 30.0729 7.7463 30.0074 7.54979 29.9419C6.82927 29.5489 6.10874 29.1559 5.38822 28.7629C5.19171 28.6319 5.06071 28.6319 4.8642 28.7629C4.14368 29.1559 3.42315 29.5489 2.63713 29.9419C2.17861 30.1384 1.7201 29.8764 1.7201 29.3524ZM5.12621 22.2127C4.8642 22.7367 4.60219 23.1297 4.47119 23.5882C4.27468 24.1122 3.94717 24.3087 3.42315 24.3087C2.96464 24.3742 2.44062 24.4397 1.9821 24.5053C2.44062 24.9638 2.83363 25.3568 3.22665 25.8153C3.42315 26.0118 3.55416 26.2738 3.48865 26.6013C3.35765 27.1908 3.29215 27.7149 3.16114 28.3699C3.68516 28.1079 4.20918 27.8459 4.66769 27.5839C4.9952 27.3873 5.32272 27.3873 5.65023 27.5839C6.10874 27.8459 6.63276 28.1079 7.15678 28.3699C7.02577 27.7804 6.96027 27.1908 6.89477 26.6668C6.82927 26.2738 6.89477 26.0118 7.22228 25.7498C7.61529 25.3568 8.00831 24.9638 8.40132 24.5708C7.8773 24.5053 7.28778 24.3742 6.76376 24.3087C6.37075 24.2432 6.17424 24.1122 5.97774 23.7192C5.65023 23.2607 5.38822 22.7367 5.12621 22.2127Z" fill="#FF5ADB"/>
<path d="M31.0651 29.3525C31.0651 29.8765 30.6066 30.1385 30.1481 29.942C29.4276 29.549 28.7071 29.2215 27.9865 28.8284C27.79 28.6974 27.5935 28.6974 27.397 28.8284C26.6765 29.2215 26.0215 29.549 25.3009 29.942C25.0389 30.073 24.8424 30.1385 24.5804 29.942C24.3184 29.7455 24.3184 29.549 24.3839 29.287C24.5149 28.5009 24.6459 27.6494 24.7769 26.8634C24.7769 26.7324 24.7114 26.5359 24.6459 26.4049C24.0564 25.8153 23.5324 25.2913 22.9429 24.7018C22.7464 24.5053 22.6154 24.3088 22.6809 23.9813C22.7464 23.7193 23.0084 23.5883 23.2704 23.5883C24.0564 23.4573 24.9079 23.3918 25.694 23.2608C25.825 23.2608 25.956 23.1298 26.0215 22.9987C26.4145 22.2782 26.742 21.5577 27.135 20.8372C27.266 20.5752 27.397 20.3787 27.7245 20.3787C28.052 20.3787 28.183 20.5752 28.314 20.8372C28.6416 21.5577 29.0346 22.2782 29.4276 22.9987C29.4931 23.1298 29.6241 23.2608 29.7551 23.2608C30.5411 23.3918 31.3926 23.5228 32.1787 23.5883C32.4407 23.6538 32.7027 23.7193 32.7682 23.9813C32.8992 24.2433 32.7682 24.5053 32.5717 24.6363C31.9822 25.1603 31.4581 25.7498 30.8686 26.2739C30.6721 26.4704 30.6066 26.6014 30.6721 26.8634C30.8031 27.5839 30.9341 28.3699 31.0651 29.0905C30.9996 29.2215 31.0651 29.287 31.0651 29.3525ZM30.8686 24.5708C30.2791 24.5053 29.7551 24.3743 29.2311 24.3088C28.8381 24.2433 28.5761 24.1123 28.4451 23.7193C28.2485 23.1953 27.9865 22.7367 27.7245 22.2127C27.4625 22.8022 27.2005 23.2608 26.9385 23.7848C26.8075 24.1123 26.5455 24.3088 26.218 24.3088C25.6285 24.3743 25.1044 24.4398 24.5149 24.5708C24.9079 24.9638 25.2354 25.3568 25.6285 25.6843C25.956 26.0119 26.087 26.3394 25.956 26.7979C25.825 27.3219 25.7595 27.8459 25.694 28.3699C26.087 28.1734 26.349 28.0424 26.611 27.9114C27.8555 27.2564 27.4625 27.2564 28.7726 27.9114C29.0346 28.0424 29.3621 28.2389 29.6896 28.3699C29.5586 27.7149 29.4931 27.1909 29.3621 26.6669C29.2966 26.3394 29.3621 26.0774 29.6241 25.8153C30.0826 25.4223 30.4756 24.9638 30.8686 24.5708Z" fill="#FF5ADB"/>
<path d="M16.327 0.00744629C18.2921 0.00744629 19.7986 1.12098 20.1916 2.88954C20.6501 4.85461 19.3401 7.34369 17.4405 8.06421C16.3925 8.45723 15.41 8.32622 14.4929 7.7367C13.0519 6.75417 12.3314 5.37863 12.2659 3.67557C12.3314 1.5795 14.0999 0.00744629 16.327 0.00744629ZM19.1436 3.74107C19.1436 3.54456 19.1436 3.34806 19.0781 3.15155C18.8161 1.84151 17.5715 1.05548 16.1305 1.12098C14.6894 1.25199 13.7069 2.03801 13.5104 3.28256C13.3139 4.5926 14.0999 6.23015 15.279 6.88518C15.9995 7.27819 16.72 7.27819 17.375 6.88518C18.4886 6.16465 19.0781 5.11662 19.1436 3.74107Z" fill="#FF5ADB"/>
<path d="M12.7244 14.2214C12.5934 15.99 12.4624 17.693 12.3314 19.4616C12.3314 19.5926 12.3314 19.7236 12.2659 19.8546C12.2004 20.1821 12.0039 20.3131 11.6764 20.2476C11.4144 20.2476 11.2178 20.0511 11.1523 19.7891C11.1523 19.7236 11.1523 19.5926 11.1523 19.5271C11.2833 17.7585 11.4144 15.9245 11.5454 14.1559V14.0904C11.6109 13.5664 11.8074 13.3699 12.2004 13.3699C12.5934 13.4354 12.7244 13.6974 12.7244 14.1559V14.2214Z" fill="#FF5ADB"/>
<path d="M19.8643 14.2215C19.8643 14.0905 19.8643 14.025 19.8643 13.894C19.8643 13.5665 20.1263 13.3044 20.4538 13.3044C20.7813 13.3044 20.9778 13.5665 21.0433 13.894C21.1088 14.811 21.1743 15.728 21.2398 16.6451C21.3053 17.5621 21.3708 18.4791 21.4363 19.3961C21.4363 19.5927 21.4363 19.7892 21.3708 19.9857C21.2398 20.2477 20.9778 20.3132 20.7813 20.2477C20.5848 20.1822 20.3883 19.9857 20.3228 19.7892C20.2573 19.4616 20.2573 19.0686 20.1918 18.7411C20.1263 17.2346 19.9953 15.728 19.8643 14.2215Z" fill="#FF5ADB"/>
</svg>
