<svg width="27" height="29" viewBox="0 0 27 29" fill="none" xmlns="http://www.w3.org/2000/svg">
<path d="M2.27558 3.538C1.57958 3.306 1.05758 2.784 0.999577 1.972C0.883577 0.928 1.69558 0.058 2.73958 0C2.79758 0 2.91358 0 2.97158 0C7.61158 0 12.2516 0 16.8336 0C17.6456 0 18.2256 0.29 18.6316 1.044C19.0376 1.914 18.6896 3.016 17.8196 3.422C17.7036 3.48 17.6456 3.538 17.5296 3.538C17.6456 4.118 17.7616 4.698 17.8776 5.278C18.1676 7.25 17.6456 8.932 16.4276 10.498C15.3256 11.948 13.9916 13.05 12.5416 14.094C12.4836 14.152 12.4256 14.21 12.3096 14.21C12.0196 14.384 12.0776 14.5 12.3096 14.674C13.0636 15.254 13.8176 15.834 14.5716 16.472C14.6296 16.53 14.6876 16.588 14.7456 16.646C14.9196 16.878 14.9196 17.226 14.7456 17.4C14.5716 17.632 14.2236 17.69 13.9916 17.516C13.8756 17.4 13.7596 17.284 13.5856 17.168C12.9476 16.646 12.2516 16.124 11.5556 15.602C10.6276 14.906 10.6276 13.804 11.5556 13.166C13.0056 12.18 14.2816 11.078 15.3836 9.686C16.8336 7.83 16.8916 5.858 16.1956 3.712C16.1376 3.538 16.0216 3.538 15.8476 3.538C13.9336 3.538 12.0776 3.538 10.1636 3.538C8.01758 3.538 5.92958 3.538 3.78358 3.538C3.55158 3.538 3.43558 3.596 3.37758 3.828C3.02958 5.22 2.73958 6.612 3.31958 8.062C3.78358 9.164 4.47958 10.15 5.34958 10.904C6.27758 11.716 7.20558 12.47 8.19158 13.224C9.00358 13.862 9.00358 14.964 8.19158 15.544C8.07558 15.602 7.95958 15.66 7.90158 15.776C6.50958 16.762 5.23358 17.864 4.18958 19.198C2.79758 21.054 2.79758 23.026 3.43558 25.114C3.49358 25.288 3.66758 25.288 3.78358 25.288C6.62558 25.288 9.40958 25.288 12.2516 25.288C12.4256 25.288 12.5996 25.288 12.7736 25.288C13.1216 25.288 13.3536 25.52 13.3536 25.868C13.3536 26.216 13.1216 26.448 12.7736 26.448C12.6576 26.448 12.5416 26.448 12.4836 26.448C9.35158 26.448 6.16158 26.448 3.02958 26.448C2.91358 26.448 2.79758 26.448 2.73958 26.448C2.44958 26.506 2.21758 26.738 2.21758 27.028C2.21758 27.318 2.44958 27.608 2.73958 27.608C2.85558 27.608 3.02958 27.608 3.14558 27.608C6.85758 27.608 10.5116 27.608 14.2236 27.608C14.3396 27.608 14.4556 27.608 14.5716 27.608C14.8616 27.666 15.0936 27.84 15.0936 28.13C15.0936 28.42 14.9196 28.71 14.6296 28.768C14.5136 28.768 14.3976 28.768 14.3396 28.768C10.5696 28.768 6.79958 28.768 2.97158 28.768C1.81158 28.768 0.941577 27.956 0.999577 26.796C1.05758 25.984 1.52158 25.462 2.27558 25.172C2.15958 24.708 2.04358 24.244 1.98558 23.78C1.52158 21.402 2.27558 19.372 3.84158 17.632C4.88558 16.472 6.10358 15.428 7.37958 14.558C7.78558 14.268 7.78558 14.21 7.37958 13.92C6.04558 12.992 4.88558 12.006 3.78358 10.788C1.92758 8.7 1.40558 6.322 2.15958 3.654C2.21758 3.538 2.21758 3.48 2.21758 3.364C2.33358 3.596 2.27558 3.596 2.27558 3.538ZM9.87358 1.218C7.61158 1.218 5.29158 1.218 3.02958 1.218C2.50758 1.218 2.21758 1.45 2.21758 1.856C2.21758 2.262 2.50758 2.436 3.02958 2.494C3.02958 2.494 3.02958 2.494 3.08758 2.494C7.08958 2.494 11.0916 2.494 15.0356 2.494C15.6736 2.494 16.3116 2.494 16.9496 2.494C17.3556 2.494 17.5876 2.262 17.5876 1.914C17.5876 1.566 17.3556 1.334 16.9496 1.276C16.8336 1.276 16.7176 1.276 16.6596 1.276C14.3976 1.218 12.1356 1.218 9.87358 1.218Z" fill="#FE9B71"/>
<path d="M20.2556 16.298C23.7356 16.298 26.6356 19.14 26.6356 22.62C26.6356 26.158 23.7936 29 20.2556 29C16.7756 29 13.9336 26.158 13.9336 22.678C13.9336 19.14 16.7756 16.298 20.2556 16.298ZM19.6756 17.574C18.9796 17.516 17.7036 18.038 17.1236 18.618C17.4136 18.966 17.8776 19.256 17.4716 19.778C17.0076 20.3 16.6016 19.836 16.2536 19.488C15.6736 20.184 15.2096 21.286 15.2096 22.04C15.6736 22.04 16.2536 21.924 16.2536 22.62C16.2536 23.316 15.6736 23.2 15.1516 23.258C15.2676 24.244 15.6156 25.056 16.1956 25.81C16.7756 25.288 17.0656 25.172 17.3556 25.462C17.4716 25.578 17.5876 25.752 17.5296 25.81C17.4136 26.1 17.2976 26.39 17.1236 26.738C17.8196 27.26 18.6316 27.608 19.5596 27.724C19.6756 26.854 19.7916 26.622 20.1396 26.622C20.2556 26.622 20.4876 26.68 20.5456 26.738C20.6616 27.028 20.7776 27.318 20.8936 27.666C21.7636 27.55 22.5756 27.202 23.3296 26.622C22.8076 25.926 22.6916 25.694 22.9816 25.404C23.2716 25.114 23.5036 25.172 24.1996 25.694C24.7796 24.94 25.1276 24.128 25.2436 23.142C24.7796 23.084 24.2576 23.2 24.1996 22.562C24.1416 21.808 24.7796 21.924 25.2436 21.866C25.1276 20.88 24.7796 20.068 24.1996 19.314C23.8516 19.662 23.5036 20.126 23.0396 19.662C22.5176 19.14 23.0396 18.792 23.3296 18.444C22.5756 17.864 21.7056 17.516 20.7776 17.4C20.7776 17.864 20.8356 18.502 20.1396 18.444C19.6176 18.618 19.6756 18.038 19.6756 17.574Z" fill="#FE9B71"/>
<path d="M9.87338 6.08997C11.4394 6.08997 13.0634 6.08997 14.6294 6.08997C15.2674 6.08997 15.4994 6.32197 15.3834 6.95997C15.2094 7.94597 14.6874 8.75797 14.0494 9.45397C13.1794 10.498 12.1354 11.31 11.0914 12.122C10.8014 12.354 10.5114 12.586 10.2794 12.76C10.0474 12.992 9.69938 12.992 9.46738 12.818C8.65538 12.18 7.84338 11.6 7.08938 10.904C6.16138 10.15 5.29138 9.27997 4.76938 8.11997C4.59538 7.77197 4.47938 7.36597 4.36338 6.95997C4.18938 6.37997 4.47938 6.08997 5.05938 6.08997C6.68338 6.08997 8.30738 6.08997 9.87338 6.08997ZM5.63938 7.30797C5.87138 7.65597 6.04538 8.00397 6.27738 8.29397C7.20538 9.56997 8.48138 10.556 9.81538 11.426C9.87338 11.484 9.98938 11.484 10.1054 11.426C10.7434 10.962 11.3234 10.556 11.9034 10.034C12.6574 9.39597 13.3534 8.69997 13.8754 7.82997C13.9914 7.65597 14.0494 7.53997 14.1074 7.30797C11.2654 7.30797 8.48138 7.30797 5.63938 7.30797Z" fill="#FE9B71"/>
<path d="M5.52356 22.968C6.39356 22.968 7.26356 22.968 8.07556 22.968C9.40956 22.968 10.7436 22.968 12.0196 22.968C12.4836 22.968 12.8316 23.316 12.6576 23.78C12.5416 24.128 12.3096 24.186 11.9616 24.186C9.98956 24.186 8.01756 24.186 6.04556 24.186C5.69756 24.186 5.29156 24.186 4.94356 24.186C4.53756 24.186 4.36356 24.012 4.30556 23.606C4.24756 23.258 4.24756 22.91 4.24756 22.562C4.24756 21.634 4.82756 20.938 5.69756 20.706C7.78556 20.242 9.87356 20.126 12.0196 20.416C12.1356 20.416 12.1936 20.416 12.3096 20.474C12.6576 20.532 12.8316 20.822 12.7736 21.112C12.7156 21.402 12.4836 21.634 12.1936 21.634C11.9616 21.634 11.6716 21.576 11.4396 21.576C9.64156 21.402 7.90156 21.518 6.10356 21.866C5.58156 21.982 5.40756 22.214 5.52356 22.968Z" fill="#FE9B71"/>
<path d="M20.8935 21.46C20.8935 21.808 20.8935 22.156 20.8935 22.504C20.8935 22.794 20.8355 22.968 20.6035 23.142C20.4295 23.316 20.2555 23.49 20.0815 23.664C19.7915 23.896 19.5015 23.896 19.2115 23.664C18.9795 23.432 18.9215 23.026 19.2115 22.852C19.6175 22.504 19.6755 22.098 19.6755 21.634C19.6755 21.228 19.6755 20.764 19.6755 20.3C19.6755 19.894 19.9075 19.662 20.2555 19.662C20.6035 19.662 20.8355 19.894 20.8355 20.3C20.8935 20.706 20.8935 21.054 20.8935 21.46Z" fill="#FE9B71"/>
</svg>
