<svg width="22" height="30" viewBox="0 0 22 30" fill="none" xmlns="http://www.w3.org/2000/svg">
<path d="M11.6971 0C12.3571 0.12 13.0171 0.18 13.6171 0.36C17.5771 1.44 20.5771 4.98 20.9371 9.06C21.1771 11.58 20.4571 13.86 19.1371 15.96C17.9971 17.82 16.6171 19.44 15.2971 21.18C15.0571 21.48 14.8771 21.72 14.6371 22.02C15.1171 22.14 15.5971 22.2 16.0171 22.32C17.0971 22.56 18.2371 22.92 19.1971 23.52C19.6171 23.76 20.0371 24.12 20.3971 24.48C21.2371 25.38 21.2371 26.46 20.3971 27.42C19.8571 28.02 19.2571 28.38 18.5371 28.68C17.1571 29.34 15.6571 29.64 14.0971 29.82C11.6971 30.12 9.29711 30.06 6.89711 29.64C5.39711 29.4 3.95711 28.98 2.63711 28.14C2.21711 27.9 1.85711 27.54 1.55711 27.18C0.837106 26.34 0.897106 25.32 1.55711 24.48C2.15711 23.76 2.93711 23.28 3.77711 22.92C4.85711 22.44 6.05711 22.2 7.19711 21.96C7.25711 21.96 7.31711 21.96 7.37711 21.9C7.25711 21.78 7.19711 21.66 7.13711 21.6C5.81711 19.86 4.49711 18.18 3.23711 16.44C2.21711 15 1.49711 13.44 1.13711 11.64C0.177106 6.48 3.71711 1.26 8.99711 0.18C9.41711 0.12 9.77711 0.06 10.1971 0C10.7371 0 11.2171 0 11.6971 0ZM10.9771 24.84C11.0371 24.78 11.0971 24.72 11.0971 24.66C12.4771 22.86 13.8571 21.06 15.2371 19.26C16.2571 17.88 17.3371 16.5 18.2371 15C19.4371 13.14 19.9771 11.04 19.6771 8.76C19.0771 3.9 14.4571 0.48 9.53711 1.32C4.79711 2.04 1.55711 6.6 2.27711 11.34C2.51711 12.9 3.11711 14.4 4.01711 15.66C5.27711 17.4 6.59711 19.08 7.85711 20.82C8.93711 22.14 9.95711 23.46 10.9771 24.84ZM10.9771 28.86C11.5171 28.8 12.4771 28.8 13.3771 28.74C14.8171 28.62 16.1971 28.32 17.5171 27.84C18.1771 27.6 18.8371 27.3 19.3771 26.76C19.9171 26.22 19.9171 25.68 19.3771 25.2C19.1371 24.96 18.8371 24.72 18.5371 24.54C17.0971 23.76 15.5371 23.46 13.9771 23.22C13.8571 23.22 13.7371 23.34 13.6771 23.4C13.0171 24.3 12.2971 25.26 11.6371 26.16C11.2771 26.7 10.8571 26.7 10.4971 26.16C9.83711 25.26 9.11711 24.3 8.45711 23.4C8.33711 23.28 8.27711 23.16 8.09711 23.22C7.19711 23.4 6.23711 23.58 5.33711 23.82C4.43711 24.06 3.53711 24.42 2.81711 25.08C2.15711 25.68 2.09711 26.28 2.81711 26.88C3.29711 27.24 3.83711 27.54 4.37711 27.78C6.29711 28.5 8.45711 28.74 10.9771 28.86Z" fill="#5252FF"/>
<path d="M10.9772 14.04C8.69722 14.04 6.89722 12.18 6.89722 9.96001C6.89722 7.68001 8.75722 5.88 11.0372 5.88C13.2572 5.88 15.1172 7.74001 15.1172 10.02C15.0572 12.24 13.2572 14.04 10.9772 14.04ZM13.9172 9.96001C13.9172 8.34001 12.5972 7.02 11.0372 7.02C9.41722 7.02 8.09722 8.34 8.09722 9.9C8.09722 11.52 9.41722 12.84 11.0372 12.84C12.5972 12.9 13.9172 11.58 13.9172 9.96001Z" fill="#5252FF"/>
</svg>
