<svg width="29" height="29" viewBox="0 0 29 29" fill="none" xmlns="http://www.w3.org/2000/svg">
<path d="M28.9707 13.5414C28.9707 14.1214 28.9707 14.7594 28.9707 15.3394C28.9707 15.3974 28.9127 15.4555 28.9127 15.5715C28.7967 16.3255 28.7386 17.0795 28.5646 17.7755C27.2886 23.4018 22.5904 27.81 16.9642 28.738C16.4421 28.854 15.9201 28.912 15.3981 28.97C14.8181 28.97 14.1801 28.97 13.6 28.97C13.542 28.97 13.426 28.912 13.368 28.912C12.73 28.796 12.15 28.796 11.5119 28.622C8.26382 27.926 5.53771 26.3019 3.44962 23.7498C0.549504 20.2116 -0.552541 16.2095 0.259492 11.6853C0.897518 8.14716 2.75359 5.18903 5.71171 2.98495C9.01785 0.432842 12.788 -0.437193 16.9062 0.200833C19.6323 0.664852 22.0684 1.8249 24.1565 3.68097C26.6506 5.94307 28.2166 8.66918 28.7967 11.9753C28.8547 12.4973 28.9127 13.0194 28.9707 13.5414ZM14.4701 27.2879C21.5464 27.2879 27.2886 21.5457 27.2886 14.4694C27.2886 7.45113 21.5464 1.70889 14.5281 1.65089C7.45178 1.65089 1.70955 7.39312 1.65155 14.4694C1.65155 21.4877 7.39378 27.2299 14.4701 27.2879Z" fill="#29D9FF"/>
<path d="M13.5999 11.9174C13.5999 11.1053 13.5999 10.2933 13.5999 9.48126C13.5999 8.90124 13.9479 8.55322 14.4119 8.55322C14.9339 8.55322 15.2819 8.95924 15.2819 9.48126C15.2819 10.9313 15.2819 12.3814 15.2819 13.8314C15.2819 14.0634 15.3399 14.1795 15.5139 14.2955C17.022 15.8035 18.5301 17.3116 20.0381 18.8196C20.2701 19.0516 20.4441 19.2837 20.3861 19.6317C20.2701 20.2697 19.5741 20.5597 19.0521 20.2117C18.9941 20.1537 18.8781 20.0957 18.8201 19.9797C17.196 18.3556 15.6299 16.7316 14.0059 15.1655C13.7159 14.8755 13.5999 14.5855 13.5999 14.1795C13.6579 13.4834 13.5999 12.6714 13.5999 11.9174Z" fill="#29D9FF"/>
<path d="M15.3399 5.13104C15.3399 5.42105 15.3399 5.71107 15.3399 6.00108C15.3399 6.4651 14.9339 6.87111 14.4699 6.87111C14.0059 6.87111 13.6579 6.5231 13.5999 6.00108C13.5999 5.42105 13.5999 4.84103 13.5999 4.26101C13.6579 3.79699 14.0059 3.44897 14.4699 3.44897C14.9339 3.44897 15.3399 3.79699 15.3399 4.26101C15.3399 4.55102 15.3399 4.84103 15.3399 5.13104Z" fill="#29D9FF"/>
<path d="M5.13153 13.5994C5.42154 13.5994 5.65355 13.5994 5.94356 13.5994C6.40758 13.5994 6.8136 14.0054 6.8136 14.4694C6.8136 14.9334 6.46558 15.3394 6.00157 15.3394C5.42154 15.3394 4.84152 15.3394 4.2615 15.3394C3.79748 15.2814 3.44946 14.9334 3.44946 14.4694C3.44946 14.0054 3.79748 13.6574 4.3195 13.6574C4.55151 13.5994 4.84152 13.5994 5.13153 13.5994Z" fill="#29D9FF"/>
<path d="M23.8084 15.3394C23.5184 15.3394 23.2284 15.3394 22.9384 15.3394C22.4744 15.3394 22.0684 14.9334 22.0684 14.4694C22.0684 14.0054 22.4164 13.5994 22.8804 13.5994C23.4604 13.5994 24.0404 13.5994 24.6205 13.5994C25.0845 13.5994 25.4325 14.0054 25.4325 14.4694C25.4325 14.9334 25.0845 15.2814 24.6205 15.2814C24.3885 15.3394 24.0984 15.3394 23.8084 15.3394Z" fill="#29D9FF"/>
<path d="M13.5999 23.8078C13.5999 23.5178 13.5999 23.2278 13.5999 22.9378C13.5999 22.4738 14.0059 22.0677 14.4699 22.0677C14.9339 22.0677 15.3399 22.4158 15.3399 22.8798C15.3399 23.4598 15.3399 24.0398 15.3399 24.6199C15.3399 25.0839 14.9339 25.4319 14.4699 25.4319C14.0059 25.4319 13.6579 25.0839 13.6579 24.5619C13.5999 24.3878 13.5999 24.0978 13.5999 23.8078Z" fill="#29D9FF"/>
<path d="M22.5323 21.6617C22.5323 22.1257 22.1843 22.4737 21.6623 22.4737C21.1983 22.4737 20.7923 22.0677 20.8503 21.6037C20.8503 21.1397 21.2563 20.7337 21.7203 20.7917C22.1843 20.8497 22.5323 21.1977 22.5323 21.6617Z" fill="#29D9FF"/>
<path d="M6.40771 7.27712C6.40771 6.8131 6.75573 6.46509 7.27775 6.46509C7.74177 6.46509 8.14779 6.8711 8.14779 7.33512C8.14779 7.79914 7.74177 8.20516 7.27775 8.20516C6.81373 8.08915 6.40771 7.74114 6.40771 7.27712Z" fill="#29D9FF"/>
<path d="M21.6624 6.4071C22.1264 6.4071 22.5324 6.75512 22.4744 7.27714C22.4744 7.74116 22.0684 8.14718 21.6044 8.14718C21.1404 8.14718 20.7344 7.74116 20.7344 7.27714C20.8504 6.81312 21.1984 6.4071 21.6624 6.4071Z" fill="#29D9FF"/>
<path d="M6.40771 21.6617C6.40771 21.1977 6.81373 20.7917 7.27775 20.8497C7.74177 20.8497 8.14779 21.2557 8.08978 21.7197C8.08978 22.1837 7.68377 22.5317 7.21975 22.5317C6.75573 22.5317 6.40771 22.1257 6.40771 21.6617Z" fill="#29D9FF"/>
</svg>
