<?xml version="1.0" encoding="utf-8"?>
<!-- Generator: Adobe Illustrator 25.2.3, SVG Export Plug-In . SVG Version: 6.00 Build 0)  -->
<svg version="1.1" id="Layer_1" xmlns="http://www.w3.org/2000/svg" xmlns:xlink="http://www.w3.org/1999/xlink" x="0px" y="0px"
	 viewBox="0 0 100 100" style="enable-background:new 0 0 100 100;" xml:space="preserve">
<g>
	<path d="M56,68c0.6,2,1.3,4,1.9,5.9c1.2,3.8,2.4,7.6,3.5,11.3c0.2,0.6,0.4,0.7,1,0.7c0.7,0,1.4,0,2.1,0.1c2.3,0.5,3.7,2.6,3.5,4.9
		c-0.2,2.2-2.1,4-4.4,4c-9.1,0-18.1,0-27.2,0c-2.5,0-4.4-2.1-4.4-4.5c0-2.4,2-4.4,4.4-4.4c2-0.1,2-0.1,2.6-1.9
		c1.6-5,3.2-10.1,4.7-15.1c0.1-0.3,0.2-0.6,0.3-1c-0.4,0-0.8,0-1.2,0c-11,0-22,0-33,0c-2.4,0-4.1-1.3-4.7-3.4
		c-0.5-1.9,0.3-4,2.1-4.9C7.9,59.3,8,59,8,58.4c0-5.2,0-10.3,0-15.5c0-3.1,1.8-4.9,5-4.9c1.3,0,2.6,0,4,0c0-1,0-1.9,0-2.8
		c0-2,1.3-3.2,3.2-3.2c2.9,0,5.7,0,8.6,0c1.9,0,3.1,1.3,3.2,3.2c0,0.9,0,1.8,0,2.8c1.3,0,2.6,0,3.9,0c3.3,0,5.1,1.8,5.1,5.1
		c0,4.9,0,9.9,0,14.8c0,0.3,0,0.7,0,1.1c1,0,1.9,0,2.8,0c0.2,0,0.5-0.2,0.7-0.4c3.1-3.4,8-3.4,11.2,0c0.2,0.2,0.6,0.4,0.8,0.4
		c6.1,0,12.1,0,18.4,0c-0.3-0.4-0.5-0.6-0.8-0.8c-3-3-6-6.1-9-9.1c-4.7-4.8-3.8-12.3,1.7-15.7c3.5-2.1,8-1.8,11.2,0.9
		c0.2,0.1,0.3,0.3,0.3,0.3c1.5-0.8,2.9-1.7,4.4-2.2c4.1-1.3,8.5,0.5,10.8,4.1c2.3,3.7,2,8.7-0.9,11.8c-3.1,3.3-6.3,6.5-9.5,9.7
		c-0.2,0.2-0.5,0.4-0.8,0.6c0,0.1,0.1,0.2,0.1,0.2c0.3,0,0.5,0.1,0.8,0.1c2.4,0,4.8,0,7.2,0c2.7,0,4.7,1.9,4.7,4.4
		c0,2.6-2,4.5-4.7,4.5c-11,0-22.1,0-33.1,0C56.8,68,56.5,68,56,68z M78.3,58.1c4-3.9,8-7.7,11.9-11.6c0.2-0.2,0.3-0.3,0.4-0.5
		c2.2-3.1,1.6-7.4-1.5-9.7c-2.9-2.2-6.8-1.6-9.2,1.4c-1,1.3-2,1.2-3,0c-1.6-2.1-3.8-3.1-6.4-2.6c-2.7,0.5-4.4,2.1-5.2,4.7
		c-0.9,2.7-0.2,5.1,1.7,7.1c2.2,2.3,4.4,4.5,6.7,6.7C75.3,55.1,76.9,56.7,78.3,58.1z M11.1,47.7c0,3.8,0,7.5,0,11.2
		c9,0,17.9,0,26.9,0c0-3.7,0-7.4,0-11.2c-0.3,0.1-0.6,0.2-0.8,0.3c-3.7,1.5-7.5,3-11.2,4.5c-1,0.4-1.8,0.4-2.8,0
		C19.1,50.9,15.1,49.4,11.1,47.7z M46.5,70.1c-1.7,5.3-3.3,10.6-5,15.9c5.7,0,11.2,0,16.9,0c-1.7-5.3-3.3-10.6-5-15.9
		C51.1,71.3,48.8,71.3,46.5,70.1z M24.5,41c-3.9,0-7.7,0-11.6,0c-1.4,0-1.9,0.5-1.9,1.9c0,0.2,0,0.5,0,0.7c-0.1,0.6,0.1,0.9,0.7,1.1
		c4,1.6,8,3.2,12.1,4.8c0.4,0.2,1.1,0.2,1.5,0c3.8-1.5,7.5-3,11.3-4.5C38,44.5,38,44.5,38,43c0-1.5-0.5-2-2-2
		C32.2,41,28.3,41,24.5,41z M42.5,62c-0.3,0-0.5,0-0.8,0c-10.6,0-21.2,0-31.8,0c-0.2,0-0.3,0-0.5,0C8.6,62.1,8,62.6,8,63.4
		c0,0.8,0.5,1.5,1.4,1.6c0.2,0,0.4,0,0.7,0c10.5,0,21,0,31.6,0c0.3,0,0.6,0,0.9,0C42.5,64,42.5,63,42.5,62z M57.4,65
		c0.3,0,0.5,0,0.7,0c10.6,0,21.2,0,31.8,0c0.3,0,0.6,0.1,0.8-0.1c0.4-0.4,1-0.8,1.1-1.2c0.1-0.5-0.4-1.1-0.7-1.4
		C90.9,62,90.3,62,89.9,62c-10.5,0-21,0-31.6,0c-0.3,0-0.6,0-0.9,0C57.4,63,57.4,63.9,57.4,65z M50,89c-4.3,0-8.6,0-12.8,0
		c-0.2,0-0.5,0-0.7,0c-0.8,0.1-1.4,0.7-1.4,1.5c0,0.8,0.5,1.3,1.3,1.5c0.3,0.1,0.6,0,0.9,0c8.5,0,17,0,25.5,0c0.3,0,0.7,0,1,0
		c0.8-0.2,1.3-0.7,1.2-1.5c-0.1-0.8-0.6-1.3-1.4-1.4c-0.2,0-0.5,0-0.7,0C58.6,89,54.3,89,50,89z M50,59c-2.5,0-4.5,2-4.5,4.5
		c0,2.4,2,4.5,4.5,4.5c2.5,0,4.5-2,4.5-4.5C54.5,61,52.5,59,50,59z M20.1,35c0,1,0,1.9,0,2.9c3,0,5.9,0,8.8,0c0-1,0-2,0-2.9
		C25.9,35,23,35,20.1,35z"/>
	<path d="M33.5,21.5C33.5,12.4,40.9,5,50,5c9.1,0,16.5,7.5,16.4,16.6C66.5,30.6,59,38,50,38C40.9,38,33.5,30.6,33.5,21.5z M50,8
		c-7.4,0-13.5,6-13.5,13.4c0,7.5,6,13.6,13.4,13.6c7.4,0,13.5-6,13.6-13.4C63.5,14.1,57.5,8,50,8z"/>
	<path d="M47.6,24.6c1.8-2.1,3.6-4.2,5.4-6.2c0.8-0.9,1.6-1.9,2.4-2.8c0.7-0.8,1.6-1,2.3-0.4c0.7,0.6,0.7,1.5,0,2.3
		c-2.9,3.4-5.8,6.7-8.7,10.1c-0.8,1-1.7,1-2.6,0.1c-1.4-1.4-2.7-2.7-4.1-4.1c-0.8-0.8-0.8-1.7-0.2-2.3c0.6-0.6,1.5-0.6,2.3,0.2
		C45.5,22.4,46.5,23.5,47.6,24.6z"/>
</g>
</svg>
