<?xml version="1.0" encoding="utf-8"?>
<!-- Generator: Adobe Illustrator 25.2.3, SVG Export Plug-In . SVG Version: 6.00 Build 0)  -->
<svg version="1.1" id="Layer_1" xmlns="http://www.w3.org/2000/svg" xmlns:xlink="http://www.w3.org/1999/xlink" x="0px" y="0px"
	 viewBox="0 0 100 100" style="enable-background:new 0 0 100 100;" xml:space="preserve">
<g>
	<path d="M44.4,95c-1.7-0.7-2.3-2-2.1-3.8c0.1-1.2,0-2.4,0-3.7c-0.7,0-1.3,0-1.9,0c-1.8,0-3-1.1-3.1-2.8c-0.1-1.1,0-2.2,0-3.3
		c0-1.1,0.6-1.8,1.5-2.4c0.2-0.1,0.4-0.5,0.4-0.8c0-1.2,0-2.3,0-3.5c0-0.6-0.2-0.9-0.7-1.1c-4.2-1.9-7.7-4.7-10.6-8.2
		c-4.7-5.8-6.9-12.5-6.7-19.9c0.2-6.4,2.2-12.2,6.2-17.3c4.3-5.6,9.9-9.3,16.7-10.9c5.5-1.3,11-1.1,16.4,0.8c0.6,0.2,1,0.3,1.6-0.1
		c0.9-0.5,1.7-0.2,2.4,0.5c0.4,0.4,0.8,0.8,1.2,1.2c0.3,0.4,0.6,0.5,1.1,0.3c0.5-0.2,0.6-0.5,0.6-1c0-0.6,0-1.2,0-1.8
		c0.1-1.4,1-2.2,2.3-2.3c1.5,0,3,0,4.6,0c1.4,0,2.2,0.9,2.3,2.3c0,0.6,0,1.1,0,1.7c0,0.5,0.1,0.8,0.6,1.1c0.6,0.2,0.9,0,1.2-0.4
		c0.4-0.4,0.8-0.8,1.2-1.2c1-0.9,2.2-0.9,3.2,0c1.2,1.1,2.3,2.2,3.3,3.4c0.9,0.9,0.8,2.1,0,3.1c-0.4,0.4-0.8,0.8-1.2,1.2
		c-0.4,0.4-0.6,0.6-0.4,1.3c0.3,0.6,0.7,0.6,1.2,0.6c0.5,0,1.1,0,1.6,0c1.2,0,2.2,0.9,2.2,2.2c0.1,1.6,0,3.2,0,4.8
		c0,1.3-1,2.2-2.3,2.2c-0.6,0-1.1,0-1.7,0c-0.5,0-0.8,0.1-1.1,0.6c-0.2,0.5-0.1,0.8,0.3,1.1c0.5,0.4,0.9,0.9,1.3,1.3
		c0.8,0.9,0.8,2.1,0,3c-1.1,1.2-2.2,2.3-3.4,3.4c-0.5,0.4-1.2,0.6-2,0.9c-0.1,0.7-0.1,1.7-0.2,2.6c-0.1,1-0.7,1.4-1.5,1.3
		c-0.8-0.1-1.2-0.7-1.1-1.6c0.1-1.3,0.2-2.7,0.2-4c0-0.3-0.1-0.6-0.1-0.9c-1.3,0.2-1.4,0.3-1.4,1.4c0,0.5,0,1.1,0,1.6
		c-0.1,1.3-0.9,2.1-2.2,2.2c-1.6,0-3.1,0-4.7,0c-1.3,0-2.2-0.9-2.3-2.2c0-0.7,0-1.4,0-2c0-0.3-0.3-0.7-0.6-0.8c-0.3-0.1-0.7,0-1,0.2
		c-0.5,0.4-0.9,0.9-1.3,1.3c-1,0.9-2.2,1-3.2,0c-1.2-1.1-2.3-2.2-3.3-3.4c-0.8-0.9-0.8-2.1,0-3c0.4-0.5,0.8-0.9,1.3-1.3
		c0.4-0.4,0.5-0.7,0.3-1.2c-0.2-0.5-0.6-0.6-1-0.6c-0.6,0-1.2,0-1.8,0c-1.1-0.1-2.1-0.9-2.1-2.1c0-1.7,0-3.3,0-5c0-1.1,1-2,2.1-2.1
		c0.6,0,1.2,0,1.8,0c0.5,0,0.9,0,1.1-0.6c0.2-0.5,0.1-0.9-0.3-1.2c-0.4-0.3-0.8-0.7-1.1-1.1c-1-1.1-1-2.3,0-3.4
		c0.4-0.4,0.8-0.7,1.2-1c0-0.1-0.1-0.2-0.1-0.3c-1.4-0.3-2.9-0.7-4.3-0.9c-5.8-0.8-11.3,0-16.5,2.8c-6,3.2-10.3,7.9-12.7,14.2
		c-3.1,8-2.6,15.9,1.5,23.5c2.9,5.3,7.2,9.2,12.7,11.7c1.4,0.6,2,1.3,1.8,2.8c-0.1,1.4,0,2.9,0,4.4c0.6,0,1.1,0,1.7,0
		c0-3.1,0-6.1,0-9.3c-0.2,0-0.3-0.1-0.5-0.1c-1.1-0.2-1.9-1-1.9-2.1c0-1.2,0-2.3,0-3.5c0-1.3,0.9-2.1,2.2-2.2c1.1,0,2.2,0,3.3,0
		c1.3,0,2.2,0.9,2.3,2.2c0.1,1.1,0.1,2.3,0,3.4c-0.1,1.3-0.8,1.9-2.5,2.3c0,3.1,0,6.2,0,9.3c1.3,0,2.6,0,3.9,0c0-0.3,0-0.6,0-0.9
		c0-3.1,0-6.2,0-9.2c0-0.2,0-0.4,0-0.6c0-1,0.5-1.5,1.3-1.5c0.8,0,1.3,0.6,1.3,1.6c0,1.4,0,2.8,0,4.2c0,2.2,0,4.3,0,6.5
		c0.9,0,1.7,0,2.6,0c0-0.2,0.1-0.3,0.1-0.5c0-3,0-6.1,0-9.1c0-0.4-0.2-1-0.5-1.3c-3.1-3.2-6.3-6.4-9.5-9.6c0,0-0.1-0.1-0.2-0.1
		c-2,1-2.4,0.9-4-0.7c-0.5-0.5-1-1-1.5-1.6c-0.9-1-1-2.2,0-3.2c0.7-0.8,1.5-1.5,2.2-2.2c1.1-1,2.2-1,3.3,0c0.6,0.6,1.2,1.2,1.7,1.7
		c1.5,1.5,1.5,2.4,0.1,4.1c0.2,0.2,0.4,0.5,0.6,0.7c2.9,2.9,5.8,5.9,8.7,8.8c1,1,1.6,2.2,1.5,3.7c-0.1,2.8,0,5.6,0,8.3
		c0,0.3,0,0.6,0,1c0.6,0,1.2,0,1.8,0c0-4.9,0-9.7,0-14.6c-2.1-0.4-2.5-1-2.5-3.2c0-0.8,0-1.6,0-2.4c0.1-1.5,0.9-2.3,2.4-2.4
		c1,0,2,0,3,0c1.5,0,2.3,0.9,2.4,2.4c0,0.8,0,1.7,0,2.5c0,2-0.5,2.6-2.5,3c0,2.3,0,4.6,0,7.1c1.4-0.9,2.8-1.6,4-2.5
		c3.5-2.5,6.3-5.7,8.2-9.6c0.2-0.4,0.4-0.7,0.6-1.1c0.4-0.6,1.1-0.8,1.8-0.5c0.6,0.3,0.9,1.1,0.5,1.8c-0.9,1.6-1.8,3.3-2.9,4.8
		c-3,4.1-6.8,7.3-11.5,9.4c-0.6,0.3-0.8,0.6-0.8,1.3c0.1,1.1,0,2.3,0,3.4c0,0.3,0.2,0.7,0.4,0.8c1.1,0.7,1.5,1.7,1.6,2.9
		c0,0.8,0,1.7,0,2.5c-0.1,1.9-1.3,3.1-3.3,3.2c-0.5,0-1.1,0-1.8,0c0,1.3-0.1,2.5,0,3.8c0.1,1.8-0.5,3.1-2.2,3.8
		C53.3,95,48.8,95,44.4,95z M74.1,47.1c-0.1-2-0.1-3.8,2.2-4.8c2.4-1,3.6,0.5,4.8,1.7c1-0.9,1.9-1.8,2.9-2.7c-1.5-1.3-2.8-2.6-1.8-5
		c1-2.3,2.8-2.3,4.8-2.2c0-1.4,0-2.6,0-3.9c-2,0.1-3.8,0.1-4.8-2.3c-1-2.4,0.5-3.6,1.9-4.9c-0.9-0.9-1.8-1.8-2.8-2.8
		c-1.3,1.4-2.5,2.9-4.9,1.8c-2.3-1-2.3-2.8-2.2-4.8c-1.3,0-2.6,0-3.9,0c0.2,2,0.2,3.8-2.2,4.8c-2.4,1-3.6-0.5-4.9-1.8
		c-1,0.9-1.9,1.8-2.8,2.7c1.4,1.3,2.8,2.6,1.9,5c-1,2.4-2.8,2.3-4.8,2.3c0,1.4,0,2.6,0,3.9c1.8,0,3.5-0.2,4.5,1.8
		c1.2,2.4,0.2,4-1.6,5.3c1,1,1.9,1.9,2.8,2.8c1.3-1.4,2.5-2.8,4.9-1.8c2.4,1,2.2,2.9,2.2,4.8C71.6,47.1,72.8,47.1,74.1,47.1z
		 M50.9,84.8c2.9,0,5.9,0,8.8,0c2.6,0,2.6,0,2.5-2.5c0-1.2,0-1.2-1.2-1.2c-6.2,0-12.4,0-18.6,0c-2.7,0-2.7,0-2.6,2.7
		c0,0.8,0.3,1,1,1C44.2,84.8,47.6,84.8,50.9,84.8z M57.1,91.2c-4.1,0-8.1,0-12.2,0c-0.1,1.2-0.1,1.2,1,1.2c3.5,0,6.9,0,10.4,0
		C57.3,92.4,57.3,92.3,57.1,91.2z M57.2,87.5c-4.1,0-8.2,0-12.3,0c0,0.3,0,0.6,0,0.9c4.1,0,8.2,0,12.3,0
		C57.2,88.1,57.2,87.8,57.2,87.5z M43.9,52.3c-0.6,0.6-1.2,1.1-1.7,1.7c0.6,0.6,1.2,1.1,1.7,1.6c0.5-0.5,1.1-1.1,1.7-1.7
		C45,53.3,44.5,52.8,43.9,52.3z M60.3,61c0.9,0,1.6,0,2.4,0c0-0.9,0-1.6,0-2.5c-0.7,0-1.3,0-1.8,0c-0.2,0-0.5,0.3-0.5,0.5
		C60.2,59.7,60.3,60.3,60.3,61z M46.2,63.9c-0.8,0-1.6,0-2.4,0c0,0.9,0,1.6,0,2.4c0.8,0,1.6,0,2.4,0C46.2,65.5,46.2,64.7,46.2,63.9z
		"/>
	<path d="M50.3,48.4c-2.1-0.5-2.6-1.1-2.6-3.2c0-0.8,0-1.6,0-2.4c0.1-1.5,1-2.4,2.4-2.4c1,0,2,0,3,0c1.4,0,2.2,0.9,2.3,2.2
		c0,0.8,0,1.6,0,2.4c0,2.3-0.3,2.7-2.5,3.3c0,2.3,0,4.7,0,7.1c0,0.3,0,0.6,0,1c-0.1,0.8-0.6,1.3-1.4,1.3c-0.7,0-1.2-0.5-1.2-1.3
		c0-1.1,0-2.1,0-3.2C50.3,51.7,50.3,50.1,50.3,48.4z M50.4,45.6c0.8,0,1.6,0,2.4,0c0-0.9,0-1.6,0-2.5c-0.8,0-1.6,0-2.4,0
		C50.4,44,50.4,44.8,50.4,45.6z"/>
	<path d="M43.4,41.5c0,0.6,0,1.2,0,1.8c-0.1,1.1-0.8,1.9-1.9,2c-1.3,0.1-2.6,0.1-3.9,0c-1.1-0.1-1.9-0.9-1.9-1.9
		c-0.1-1.3-0.1-2.6,0-3.9c0.1-1.1,1-1.9,2.1-2c1.1,0,2.3,0,3.4,0c1.2,0,2,0.9,2.1,2C43.4,40.2,43.4,40.8,43.4,41.5z M38.3,42.6
		c0.8,0,1.6,0,2.4,0c0-0.9,0-1.6,0-2.5c-0.8,0-1.6,0-2.4,0C38.3,41,38.3,41.8,38.3,42.6z"/>
	<path d="M41.7,31.4c0-0.6,0-1.2,0-1.8c0.1-1.1,0.9-2,1.9-2c1.3-0.1,2.6-0.1,3.9,0c1,0.1,1.9,0.9,1.9,2c0.1,1.2,0.1,2.4,0,3.6
		c-0.1,1.2-1,2.1-2.2,2.1c-1.1,0-2.1,0-3.2,0c-1.4,0-2.3-0.9-2.3-2.3C41.7,32.4,41.7,31.9,41.7,31.4C41.7,31.4,41.7,31.4,41.7,31.4z
		 M44.4,32.6c0.8,0,1.6,0,2.4,0c0-0.8,0-1.6,0-2.4c-0.8,0-1.6,0-2.4,0C44.4,30.9,44.4,31.7,44.4,32.6z"/>
	<path d="M50.3,8.1c0-0.6,0-1.2,0-1.8c0-0.8,0.6-1.3,1.3-1.3c0.7,0,1.3,0.5,1.3,1.3c0.1,1.3,0.1,2.5,0,3.8c0,0.8-0.6,1.3-1.3,1.3
		c-0.7,0-1.2-0.6-1.3-1.4C50.3,9.3,50.3,8.7,50.3,8.1C50.3,8.1,50.3,8.1,50.3,8.1z"/>
	<path d="M15,44.5c-1.2-0.1-2.3-0.3-3.5-0.4c-0.9-0.1-1.4-0.8-1.3-1.5c0.1-0.7,0.8-1.2,1.6-1.1c1.1,0.1,2.3,0.2,3.4,0.4
		c0.8,0.1,1.3,0.7,1.2,1.4C16.5,44,15.8,44.5,15,44.5z"/>
	<path d="M32.7,16.6c-0.2,0.2-0.4,0.7-0.8,0.9c-0.4,0.1-1.1,0-1.3-0.2c-0.9-1.1-1.7-2.4-2.4-3.6c-0.2-0.3,0.1-1.1,0.5-1.3
		c0.3-0.2,1.2-0.3,1.4-0.1c1,1.2,1.8,2.6,2.6,3.9C32.7,16.1,32.6,16.2,32.7,16.6z"/>
	<path d="M19.2,32.5c0,1.2-0.8,1.8-1.8,1.5c-1.2-0.4-2.4-1-3.5-1.5c-0.7-0.3-0.9-1-0.6-1.6c0.3-0.7,0.9-1,1.6-0.7
		c1.2,0.5,2.4,1,3.5,1.5C18.8,31.8,19,32.3,19.2,32.5z"/>
	<path d="M15.4,52.6c0.9,0,1.4,0.3,1.5,1c0.1,0.7-0.2,1.3-0.9,1.5c-1.3,0.3-2.6,0.5-3.9,0.7c-0.7,0.1-1.2-0.4-1.3-1
		c-0.1-0.7,0.2-1.3,0.8-1.4C12.9,53,14.3,52.8,15.4,52.6z"/>
	<path d="M38.7,8.5c0-1,0.3-1.4,0.9-1.6c0.6-0.2,1.2,0,1.5,0.6c0.5,1.3,0.9,2.7,1.2,4c0.2,0.6-0.2,1.1-0.9,1.3
		c-0.6,0.2-1.2,0-1.5-0.6C39.4,10.9,39.1,9.6,38.7,8.5z"/>
	<path d="M24.7,23.4c0,1.1-1.1,1.8-1.9,1.3c-1.1-0.8-2.2-1.7-3.2-2.7c-0.5-0.4-0.4-1.1,0-1.6c0.4-0.5,1.1-0.7,1.6-0.3
		c1.1,0.8,2.2,1.8,3.3,2.8C24.6,22.9,24.7,23.3,24.7,23.4z"/>
	<path d="M15.8,67.3c-0.5-0.4-1-0.7-1.1-1.1c-0.1-0.5,0.1-1.2,0.4-1.4c1.2-0.7,2.4-1.4,3.7-1.9c0.3-0.1,1.1,0.2,1.3,0.5
		c0.2,0.3,0.3,1.2,0,1.4C18.8,65.7,17.4,66.5,15.8,67.3z"/>
	<path d="M26.9,72.8c-0.3,0.4-0.4,0.8-0.6,1.1c-0.8,0.8-1.6,1.6-2.4,2.3c-0.7,0.7-1.5,0.7-2,0.1c-0.5-0.6-0.5-1.3,0.2-2
		c0.8-0.8,1.6-1.6,2.5-2.3c0.3-0.3,1-0.3,1.4-0.2C26.3,71.9,26.6,72.4,26.9,72.8z"/>
	<path d="M63.1,32.2c0-6.1,5.7-10.4,11.6-8.8c1,0.3,1.4,0.9,1.2,1.7c-0.2,0.8-0.9,1.2-1.9,0.9c-2.4-0.7-4.5-0.2-6.3,1.4
		c-2.3,2.1-2.7,5.7-1,8.3c1.7,2.6,5,3.6,7.9,2.4c2.8-1.2,4.5-4.3,3.8-7.3c-0.1-0.3-0.1-0.5-0.2-0.8c-0.1-0.8,0.3-1.5,1-1.6
		c0.7-0.2,1.4,0.2,1.6,1c0.6,1.9,0.6,3.9-0.1,5.8c-1.7,4.7-7,7.2-11.6,5.5C65.6,39.5,63.1,36.1,63.1,32.2z"/>
	<path d="M72.2,36.8c-2.6,0-4.6-2.1-4.6-4.6c0-2.5,2.1-4.6,4.6-4.6c2.6,0,4.6,2.1,4.6,4.6C76.8,34.8,74.7,36.8,72.2,36.8z
		 M72.2,30.3c-1.1,0-2,0.9-2,2c0,1.1,0.9,2,2,2c1.1,0,1.9-0.9,1.9-2C74.1,31.1,73.3,30.3,72.2,30.3z"/>
</g>
</svg>
