<?xml version="1.0" encoding="utf-8"?>
<!-- Generator: Adobe Illustrator 25.2.3, SVG Export Plug-In . SVG Version: 6.00 Build 0)  -->
<svg version="1.1" id="Layer_1" xmlns="http://www.w3.org/2000/svg" xmlns:xlink="http://www.w3.org/1999/xlink" x="0px" y="0px"
	 viewBox="0 0 100 100" style="enable-background:new 0 0 100 100;" xml:space="preserve">
<g>
	<path d="M67.6,44.6c-1.9,8.7-2.1,12-7.2,18.7c1.1,0,2.1,0,3,0c2.6,0.1,4.5,2.6,3.7,5.1c-0.5,1.7-2,2.8-3.8,2.8
		c-1.4,0-2.8,0-4.3,0.1c1.3,0.5,2.3,1.4,2.7,2.7c0.4,1.4,0.1,2.7-0.8,3.9c1.3,1.7,1.4,3.5,0,5.3c0.8,1.1,1.2,2.3,0.8,3.7
		c-0.5,1.7-1.9,2.9-3.7,3c-1.9,0-3.8,0.1-5.7,0c-0.8-0.1-1.7-0.7-2.5-1c-0.3-0.1-0.6-0.2-0.8-0.1c-1.6,0.8-3.2,1.2-5,1.1
		c-4.5,0-9,0-13.5,0c-4.2,0-8.1-0.9-11.8-2.7c-0.5-0.2-0.9-0.3-1.4-0.1c-0.3,0.1-0.6,0.2-1,0.2c-1.7,0-3.4,0-5.1,0
		c-1.7,0-2.8-1.1-2.8-2.8c0-5.2,0-10.5,0-15.7c0-1.7,1.1-2.8,2.8-2.8c1.7,0,3.4,0,5.1,0c0.2,0,0.4,0,0.5,0c1,0.6,1.9,0,2.8-0.4
		c2.2-0.8,4.3-1.5,6.6-2.2c-0.1-0.1-0.2-0.3-0.4-0.5c-1.9-2.8-4.1-5.4-5.8-8.3c-3.3-6-4.5-12.5-2.9-19.3c2.1-9.1,10.3-16.2,19.5-17
		c1.2-0.1,2.4-0.1,3.7-0.2c0,2.1,0,4,0,5.8c1.8-0.2,3.5-0.4,5.3-0.6c0-3.4,0-6.9,0-10.5c1.2,0,2.4,0,3.5,0c0.2,0,0.4,0,0.7,0
		c0.8,0.1,1.4,0,1.8-0.9c0.5-1,1.5-1.6,2.6-1.7c4.9-0.3,9.7,0.3,14.1,2.6c3.5,1.8,6.3,4.3,8.6,7.4c1.5,2,3.2,3.8,4.8,5.6
		c0.2,0.2,0.6,0.4,0.9,0.4c1.8,0,3.7,0,5.5,0c1.6,0,2.7,1.1,2.7,2.7c0,4.4,0,8.8,0,13.2c0,1.6-1.1,2.7-2.7,2.7c-1.7,0-3.4,0-5.2,0
		c-1.2,0-2-0.6-2.5-1.6c-0.1-0.2-0.2-0.5-0.4-0.6c-1.6-1.6-3.1-3.2-4.8-4.7c-0.6-0.5-1.5-0.8-2.3-1c-1.1-0.2-2.2-0.2-3.4-0.3
		c0,1.8,0,3.6,0,5.5c-8,0-16,0-24,0c0-2.6,0-5.2,0-7.9c-0.8,0-1.5,0-2.2,0c-2,0.1-3.7-0.7-4.9-2.3c-0.1-0.2-0.4-0.3-0.7-0.3
		c-1,0-2,0-3,0c-1.5,0-2.6,1.2-2.6,2.7c0,1.4,1.1,2.6,2.6,2.6c1.5,0,3,0,4.5,0c0.3,0,0.5,0,0.9,0c0,2.7,0,5.3,0,8
		C49.7,44.6,58.6,44.6,67.6,44.6z M32.7,74c0.2,0,0.4,0,0.5,0c2.5,0.1,4.2-1,5-3.4c0.1-0.3,0.6-0.5,0.9-0.6c1.8-0.3,3.6-0.6,5.4-0.9
		c1-0.2,1.6-0.8,1.5-1.7c-0.1-0.9-0.7-1.4-1.7-1.4c-5,0-10-0.1-15,0c-3.3,0.1-6.5,1-9.5,2.6c-0.2,0.1-0.5,0.5-0.5,0.7
		c0,4.9,0,9.8,0,14.6c0,0.3,0.2,0.6,0.5,0.7c2.4,1.3,5,2.2,7.8,2.4c3.4,0.2,6.8,0.1,10.1,0.2c0.1,0,0.1-0.1,0.2-0.2
		c-3.2-3-2.7-6.8-2.7-10.6c-0.9,0-1.8,0.1-2.6,0.1C32.7,75.7,32.7,74.9,32.7,74z M40.7,60.6c0,0.9,0,1.8,0,2.7c1.3,0,2.5,0,3.8,0
		c2.2,0,3.9,1.7,4.1,3.8c0.2,2.1-1.2,4.1-3.4,4.5c-1.2,0.2-2.4,0.5-3.7,0.6c-1.1,0.1-1.7,0.7-2.1,1.7c3.1,0,6.1,0,9.1,0
		c0.2,0,0.4-0.2,0.5-0.4c0.7-1.3,1.7-2,3.1-2.2c0.2,0,0.5-0.3,0.6-0.5c1.2-3.5,3.1-6.5,5.6-9.3c3.5-4,5.1-8.9,5.9-14.1
		c-7.8,0-15.7,0-23.5,0c0,0.9,0,1.7,0,2.6c0.9,0,1.9,0,2.8,0c2.9,0.1,5.2,2.4,5.2,5.3c0,2.9-2.3,5.2-5.2,5.3
		C42.6,60.7,41.7,60.6,40.7,60.6z M48.6,39.3c6.3,0,12.5,0,18.6,0c0-1.2,0-2.4,0-3.6c-0.3-0.1-0.6-0.2-0.8-0.3
		c-3.9-1.6-7-4.2-9.1-7.9c-1.6-2.8,0-6.2,3.1-6.7c0.4-0.1,0.8-0.1,1.2-0.1c0-0.1,0.1-0.2,0.1-0.3c-1-0.5-1.9-1.1-2.9-1.5
		c-1.5-0.6-3.2-1-4.7-1.6c-0.8-0.3-1.4-1-2.1-1.5c-0.1-0.1-0.3-0.3-0.4-0.3c-1,0-1.9,0-2.9,0c0,3.6,0,7.1,0,10.6c-1.2,0-2.4,0-3.5,0
		c-0.6,0-1.2,0-1.8,0c-1.5,0.1-2.6,1.2-2.6,2.6c0,1.5,1.1,2.7,2.6,2.7c1.8,0,3.5,0,5.4,0C48.6,34,48.6,36.6,48.6,39.3z M38,20.8
		c-11.8,0.7-20.7,12-18.2,23.9c6.1,0,12.1,0,18.3,0c0-0.9,0-1.8,0-2.6c0-0.9,0-1.8,0-2.7c-0.9,0-1.7,0-2.4,0C32.4,39.3,30,37,30,34
		c0-3.1,2.4-5.3,5.6-5.4c0.8,0,1.6,0,2.4,0C38,26,38,23.4,38,20.8z M72.6,28.6c-1.3,0-2.6,0.1-3.8,0c-2.6-0.3-4.5-1.7-5.7-4
		c-0.6-1.2-1.9-1.5-2.9-0.9c-1,0.6-1.1,1.7-0.4,2.8c3,4.8,7.4,7.3,13.1,7.5c2.1,0.1,3.8,0.8,5.3,2.3c0.8,0.8,1.6,1.6,2.5,2.6
		c0-0.4,0-0.6,0-0.7c0-3.1,0-6.2,0-9.3c0-0.6-0.2-1-0.6-1.4c-1.7-1.9-3.4-3.9-5-5.9c-2.1-2.7-4.5-4.8-7.5-6.4
		c-4-2.1-8.2-2.6-12.6-2.3c-0.4,0-0.9,0.5-1,0.8c-0.2,0.6,0.2,1,0.8,1.2c1.6,0.5,3.3,1.1,4.9,1.6c3.6,1.3,6,3.9,7,7.7
		c0.3,1.2,1,1.7,2,1.9c0.6,0.1,1.2,0.1,1.8,0.1c0.7,0,1.4,0,2.1,0C72.6,26.9,72.6,27.8,72.6,28.6z M38,52.7c0-1.8,0-3.6,0-5.3
		c-5.9,0-11.8,0-17.9,0c0.7,1.8,1.3,3.5,2.1,5.1c1.5,3.2,3.9,5.7,5.8,8.7c1.1,1.7,2.4,2.4,4.4,2.2c1.8-0.2,3.7,0,5.6,0
		c0-1.8,0-3.6,0-5.3c0.1,0,0.2-0.1,0.2-0.1c1.6,0,3.2,0,4.8,0c1.7,0,2.9-1.1,2.9-2.7c0-1.5-1.2-2.7-2.9-2.7
		C41.5,52.7,39.8,52.7,38,52.7z M11.4,68.7c0,5.3,0,10.6,0,15.9c1.8,0,3.5,0,5.2,0c0-5.3,0-10.6,0-15.9
		C14.9,68.7,13.2,68.7,11.4,68.7z M88.6,28.7c-1.8,0-3.5,0-5.2,0c0,4.5,0,8.8,0,13.2c1.8,0,3.5,0,5.2,0
		C88.6,37.5,88.6,33.2,88.6,28.7z M49.6,83.1C48.8,82,48.8,82,47.2,82c-2.4,0-4.9,0-7.3,0c-0.6,0-1.1,0-1.7,0
		c0.7,4.5,6.5,6.9,10.1,4.2c0.2-0.1,0.3-0.4,0.4-0.6C49,84.8,49.2,84,49.6,83.1z M38.1,76.6c0,1,0,1.8,0,2.7c0.3,0,0.6,0,0.9,0
		c2.8,0,5.5-0.1,8.3,0c1.2,0,1.9-0.2,2.3-1.3c-0.3-1.3-1.2-1.5-2.3-1.4c-1.6,0.1-3.2,0-4.7,0C41.1,76.6,39.6,76.6,38.1,76.6z
		 M55.3,76.6c0.9,0,1.7,0,2.6,0c0.9,0,1.5-0.6,1.5-1.3c0-0.8-0.6-1.3-1.4-1.3c-1.7,0-3.4,0-5.2,0c-0.8,0-1.4,0.6-1.4,1.3
		c0,0.8,0.6,1.3,1.4,1.3C53.6,76.7,54.4,76.6,55.3,76.6z M55.3,82c0.9,0,1.7,0,2.6,0c0.9,0,1.5-0.6,1.5-1.4c0-0.8-0.6-1.3-1.4-1.3
		c-1.7,0-3.4,0-5.1,0c-0.9,0-1.5,0.6-1.5,1.4c0,0.7,0.6,1.3,1.4,1.3C53.6,82,54.4,82,55.3,82z M55.3,87.3c0.9,0,1.7,0,2.6,0
		c0.9,0,1.4-0.5,1.4-1.3c0-0.8-0.6-1.3-1.5-1.4c-1.7,0-3.4,0-5.1,0c-0.9,0-1.4,0.5-1.4,1.3c0,0.8,0.6,1.3,1.5,1.4
		C53.6,87.3,54.5,87.3,55.3,87.3z M56.6,68.6c2.4,0,4.5,0,6.7,0c0.8,0,1.3-0.6,1.3-1.4c0-0.7-0.6-1.3-1.4-1.3c-1.5,0-3.1,0-4.6,0
		c-0.2,0-0.5,0.1-0.6,0.2C57.6,67,57.2,67.7,56.6,68.6z"/>
</g>
</svg>
