<?xml version="1.0" encoding="utf-8"?>
<!-- Generator: Adobe Illustrator 25.2.3, SVG Export Plug-In . SVG Version: 6.00 Build 0)  -->
<svg version="1.1" id="Layer_1" xmlns="http://www.w3.org/2000/svg" xmlns:xlink="http://www.w3.org/1999/xlink" x="0px" y="0px"
	 viewBox="0 0 100 100" style="enable-background:new 0 0 100 100;" xml:space="preserve">
<g>
	<path d="M46.6,30c-0.5,2.4-1,4.6-1.4,6.9c0,0.2,0.2,0.6,0.4,0.7c0.9,0.6,1.9,1.1,2.8,1.6c2,1.2,2.8,3.1,2.4,5.4
		c-0.6,3.1-1.2,6.3-1.8,9.4c-0.4,1.9-2.1,3.2-4,2.8c-1.9-0.3-3.2-2.2-2.9-4.1c0.4-2.5,0.9-5,1.4-7.6c-0.9-0.3-1.8-0.7-2.9-1
		c0.1,1.5,0.2,2.8,0.3,4.2c0.1,1.3-0.2,2.5-1,3.6C38,54.9,36,58,33.9,61.1c-1.7,2.6-5.3,2.5-6.6-0.1c-0.7-1.4-0.4-2.7,0.4-4
		c1.8-2.7,3.6-5.4,5.4-8.1c0.3-0.4,0.4-1,0.3-1.5c-0.3-3-0.8-6-0.9-9c-0.1-1.6,0.4-3.3,0.8-4.9c0.4-2.2,0.9-4.3,1.3-6.5
		c0-0.2,0-0.3,0.1-0.6c-1.4,0.1-2.4,0.5-3,1.8c-0.3,0.7-0.7,1.4-1,2c-0.4,0.7-0.8,1.4-0.4,2.3c0.2,0.4,0,1.1-0.2,1.6
		c-0.3,0.7-0.7,1.3-1.1,1.9c0.3,0.2,0.6,0.4,0.8,0.6c2,1.4,2.5,3.8,1.3,5.9c-1.3,2.1-2.5,4.1-3.8,6.1C26,50.5,23.8,51.1,22,50
		c-3.6-2.1-7.1-4.2-10.6-6.3c-2-1.2-2.6-3.7-1.4-5.8c1.1-2,2.3-4,3.6-5.9c1.3-2.1,3.7-2.7,5.9-1.5c0.3,0.1,0.5,0.3,0.8,0.5
		c0.4-0.6,0.6-1.3,1.1-1.7c0.5-0.5,1.2-0.9,1.8-1.3c0.3-0.2,0.6-0.3,0.8-0.6c1-1.6,1.9-3.3,2.8-5c0.8-1.4,2-2.3,3.5-2.8
		c1.7-0.4,3.4-0.9,5.1-1.3c1.6-0.4,3.3-0.4,4.9-0.1c1.6,0.4,3.2,0.7,4.8,1.1c2,0.5,3.7,1.5,5.1,3.1c0.8,0.9,1.6,1.7,2.4,2.6
		c1,1.3,2.3,1.8,4,1.7c0.8,0,1.6,0,2.4,0c2,0,3.6,1.5,3.7,3.5c0,2.1-1.4,3.7-3.5,3.8c-1.5,0.1-3,0.1-4.5,0C52.2,34,50,33,48.1,31.4
		C47.6,31,47.2,30.5,46.6,30z M56.9,31.4c0.7,0,1.3,0,2,0c0.6,0,1-0.3,1-0.9c0-0.6-0.5-0.8-1-0.8c-1,0-1.9,0-2.9,0
		c-2.1,0-3.7-0.8-5.1-2.3c-0.9-1-1.8-1.9-2.6-2.9c-1-1.2-2.3-1.9-3.8-2.3c-1.5-0.4-3-0.8-4.5-1c-1.3-0.2-2.7-0.2-3.9,0
		c-1.7,0.3-3.4,0.8-5,1.3c-0.7,0.2-1.4,0.7-1.7,1.3c-1.1,1.7-2,3.4-3,5.2c-0.3,0.5-0.3,1,0.3,1.3c0.6,0.3,0.9,0,1.1-0.5
		c0.5-1,1-1.9,1.5-2.9c0.8-1.6,2-2.5,3.7-3c0.9-0.2,1.9-0.5,2.8-0.7c1.8-0.4,2.5,0.3,2.1,2.1c-0.8,4-1.6,8-2.4,12
		c-0.3,1.4,0.1,2.1,1.4,2.5c2.6,0.9,5.3,1.9,7.9,2.8c1.8,0.6,2,1,1.7,2.8c-0.5,2.5-0.9,4.9-1.4,7.4c-0.1,0.5-0.1,1.1,0.5,1.2
		c0.7,0.1,0.7-0.5,0.8-0.9c0.6-3,1.1-5.9,1.7-8.9c0.3-1.4,0-2-1.2-2.7c-1.3-0.7-2.5-1.4-3.8-2.1c-0.8-0.4-1.1-1.1-0.9-2
		c0.7-3.4,1.4-6.8,2.2-10.2c0.3-1.4,1.4-1.8,2.5-0.9c0.9,0.8,1.9,1.6,2.8,2.5C51.6,30.8,54.1,31.7,56.9,31.4z M14.3,36.1
		c-0.7,1.1-1.3,2.1-1.9,3.2c-0.5,0.8-0.3,1.6,0.5,2c3.5,2.1,6.9,4.2,10.4,6.2c0.3,0.2,1.1,0.1,1.3-0.2c0.9-1.1,1.6-2.4,2.4-3.6
		C22.7,41.2,18.6,38.7,14.3,36.1z M35.8,42.4c0.2,2,0.4,3.7,0.5,5.5c0,0.6-0.1,1.3-0.4,1.8c-1.8,2.8-3.7,5.6-5.6,8.4
		c-0.2,0.2-0.4,0.4-0.4,0.7c0,0.4,0,0.9,0.2,1c0.2,0.2,0.7,0.2,1.1,0.1c0.2-0.1,0.4-0.4,0.6-0.6c2-3.1,4.1-6.1,6.1-9.2
		c0.2-0.4,0.4-0.9,0.4-1.3c-0.1-1.7-0.3-3.4-0.5-5.1c0-0.3-0.3-0.6-0.6-0.7C36.8,42.7,36.3,42.6,35.8,42.4z M28.5,41.3
		c0.6-1,0.5-1.7-0.4-2.3c-3.4-2-6.8-4.1-10.2-6.1c-0.9-0.5-1.6-0.2-2.1,0.8C20,36.3,24.2,38.8,28.5,41.3z M27.4,33.2
		c-1.8,0-3-0.7-3.8-2.1c-0.3,0.5-0.5,0.9-0.8,1.4c1.3,0.7,2.5,1.5,3.8,2.2C26.7,34.2,27,33.8,27.4,33.2z"/>
	<path d="M76.2,46.2c-0.3-0.7-0.6-1.3-0.7-1.9c-0.1-0.5-0.1-1.2,0.1-1.7c0.3-0.6,1.1-0.6,1.7-0.4c3.4,1,6.7,2,10.1,2.9
		c0.7,0.2,1.4,0.4,2.1,0.6c1,0.3,1.4,1.2,0.8,2.1c-2.2,3.8-4.4,7.5-6.6,11.2c-0.6,1-1.9,0.9-2.5-0.2c-0.3-0.7-0.6-1.4-0.9-2.2
		c-0.3,0.1-0.5,0.2-0.8,0.3C58.2,65.7,36.8,74.3,15.5,83c-1.6,0.6-2.1,0.4-2.7-1.1c-0.9-2.3-1.9-4.6-2.8-7C9.4,73.5,9.7,73,11,72.4
		c21.4-8.6,42.8-17.2,64.2-25.8C75.5,46.5,75.8,46.4,76.2,46.2z M79.1,45.7c0.5,2,0.4,2.2-1.4,3c-0.1,0-0.1,0-0.2,0.1
		c-21.2,8.5-42.4,17-63.6,25.5c-0.3,0.1-0.7,0.3-1.1,0.5c0.7,1.8,1.4,3.6,2.2,5.3c0.3-0.1,0.6-0.2,0.8-0.3
		c16.4-6.6,32.7-13.2,49.1-19.8c5-2,10.1-4.1,15.1-6.1c1.4-0.6,1.9-0.4,2.6,1c0,0.1,0.1,0.2,0.2,0.3c1.4-2.4,2.8-4.7,4.2-7.1
		C84.4,47.2,81.8,46.5,79.1,45.7z"/>
	<path d="M90.7,79.7c0,4.5,0,8.9,0,13.4c0,1.5-0.4,1.9-1.9,1.9c-3.7,0-7.5,0-11.2,0c-1.5,0-1.9-0.4-1.9-2c0-8.9,0-17.8,0-26.6
		c0-1.5,0.4-1.9,1.9-1.9c3.8,0,7.5,0,11.3,0c1.4,0,1.9,0.4,1.9,1.8C90.7,70.8,90.7,75.2,90.7,79.7z M87.8,92.2c0-8.3,0-16.6,0-24.8
		c-3.1,0-6.2,0-9.3,0c0,8.3,0,16.5,0,24.8C81.6,92.2,84.7,92.2,87.8,92.2z"/>
	<path d="M69.9,84.4c0,2.9,0,5.9,0,8.8c0,1.3-0.4,1.8-1.8,1.8c-3.8,0-7.6,0-11.4,0c-1.4,0-1.8-0.5-1.8-1.9c0-5.8,0-11.7,0-17.5
		c0-1.4,0.5-1.9,1.9-1.9c3.8,0,7.5,0,11.3,0c1.3,0,1.8,0.5,1.8,1.8C69.9,78.5,69.9,81.5,69.9,84.4z M67,92.2c0-5.2,0-10.3,0-15.5
		c-3.1,0-6.2,0-9.3,0c0,5.2,0,10.3,0,15.5C60.8,92.2,63.9,92.2,67,92.2z"/>
	<path d="M41.5,95c-1.9,0-3.8,0-5.7,0c-1.3,0-1.7-0.5-1.7-1.8c0-3.8,0-7.7,0-11.5c0-1.3,0.5-1.8,1.8-1.8c3.8,0,7.6,0,11.4,0
		c1.3,0,1.8,0.5,1.8,1.8c0,3.8,0,7.6,0,11.4c0,1.3-0.5,1.8-1.8,1.8C45.3,95,43.4,95,41.5,95z M46.2,92.2c0-3.1,0-6.2,0-9.3
		c-3.1,0-6.2,0-9.3,0c0,3.1,0,6.2,0,9.3C40,92.2,43,92.2,46.2,92.2z"/>
	<path d="M20.6,95c-1.9,0-3.9,0-5.8,0c-1.2,0-1.7-0.5-1.7-1.7c0-1.8,0-3.7,0-5.5c0-1.1,0.5-1.6,1.6-1.6c4,0,7.9,0,11.9,0
		c1.1,0,1.6,0.6,1.6,1.7c0,1.8,0,3.7,0,5.5c0,1.2-0.5,1.7-1.7,1.7C24.5,95,22.5,95,20.6,95z M15.9,89c0,1.1,0,2.1,0,3.1
		c3.1,0,6.2,0,9.3,0c0-1.1,0-2.1,0-3.1C22.1,89,19,89,15.9,89z"/>
	<path d="M44.8,5c3.4,0,6.1,2.8,6,6.2c0,3.4-2.8,6-6.2,6c-3.3,0-6-2.8-6-6.1C38.7,7.7,41.4,5,44.8,5z M41.5,11
		c0,1.9,1.4,3.3,3.2,3.3c1.8,0,3.3-1.4,3.3-3.2c0-1.8-1.4-3.3-3.2-3.3C43,7.8,41.5,9.2,41.5,11z"/>
</g>
</svg>
