<?xml version="1.0" encoding="utf-8"?>
<!-- Generator: Adobe Illustrator 25.2.3, SVG Export Plug-In . SVG Version: 6.00 Build 0)  -->
<svg version="1.1" id="Layer_1" xmlns="http://www.w3.org/2000/svg" xmlns:xlink="http://www.w3.org/1999/xlink" x="0px" y="0px"
	 viewBox="0 0 100 100" style="enable-background:new 0 0 100 100;" xml:space="preserve">
<g>
	<path d="M35.6,90.2c-0.2,0.8-0.4,1.6-0.7,2.4c-0.2,0.5-0.7,1.1-1.1,1.2c-0.5,0.1-1.2-0.2-1.5-0.6c-1.5-1.7-2.9-3.5-4.2-5.4
		c-0.8-1-0.4-2,0.8-2.5c2.1-0.7,4.2-1.5,6.3-2.2c1.3-0.4,2.2,0.5,2,1.8c-0.1,0.4-0.2,0.7-0.3,1.1c-0.1,0.3-0.2,0.7-0.3,1.1
		c1,0.2,1.9,0.3,2.8,0.4c14.4,1.6,27.8-6.4,33.4-18c6.7-14.1,1.4-31.6-12.1-39c-12.8-7-29.3-2.4-36.2,10.2
		c-6.4,11.7-1.8,26.8,9.8,32.6c7.9,4,17.7,2.6,24.2-3.4c0.2-0.2,0.4-0.4,0.6-0.6c0.7,0.7,1.3,1.4,2,2.2c-0.5,0.5-1.2,1.1-1.9,1.6
		c-11.2,8.9-27.2,6.6-35.6-5.1c-9.5-13.3-5.4-31.6,8.9-39.8c15.4-8.8,34.5-2.9,42.5,13.2c8,16.1,2.1,35.2-13.6,44.2
		c-7.8,4.5-16.2,6-25.1,4.4C36,90.2,35.8,90.2,35.6,90.2z M33.3,86.8c-0.7,0.3-1.2,0.4-1.8,0.6c0.4,0.6,0.8,1,1.2,1.5
		C33,88.3,33.1,87.7,33.3,86.8z"/>
	<path d="M55.4,66c-0.7-0.6-1.4-1.2-2-1.8c-0.4-0.4-0.7-0.4-1.2-0.2c-0.5,0.2-0.6,0.5-0.6,1c0.1,3.3-0.7,3.1-3.2,3
		c-1.4,0-2.7,0-4.1,0c-1.2,0-1.7-0.6-1.7-1.7c0-0.4,0-0.8,0-1.2c0-0.5,0-0.9-0.6-1.1c-0.5-0.2-0.8-0.1-1.2,0.3
		c-2.2,2.1-2.2,2.1-4.3,0c-1-1-2-2-3-3c-0.8-0.9-0.8-1.6,0-2.4c0.3-0.3,0.6-0.6,0.9-0.9c0.4-0.3,0.5-0.6,0.3-1.1
		c-0.2-0.5-0.5-0.7-1-0.7c-3.4,0.1-3.1-0.8-3.1-3.2c0-1.3,0-2.6,0-3.9c0-1.3,0.5-1.8,1.9-1.9c0.4,0,0.8,0,1.1,0c0.5,0,0.8,0,1-0.6
		c0.2-0.5,0.2-0.9-0.2-1.2c0,0,0,0-0.1-0.1c-2-2.1-2-2.2,0-4.3c1-1,1.9-1.9,2.9-2.9c0.9-0.9,1.7-0.9,2.7,0c0.3,0.3,0.5,0.5,0.8,0.8
		c0.3,0.3,0.6,0.6,1.1,0.3c0.5-0.2,0.8-0.4,0.7-1c0-0.1,0-0.2,0-0.3c0.1-2.7,0.2-2.8,2.8-2.8c1.5,0,2.9,0,4.4,0
		c1.2,0,1.8,0.6,1.8,1.8c0,0.4,0,0.7,0,1.1c0,0.5-0.1,0.9,0.5,1.1c0.6,0.2,0.9,0.1,1.3-0.3c2.2-2,2.2-2,4.3,0.1c1,1,2,1.9,2.9,2.9
		c0.9,0.9,0.9,1.6,0,2.5c-0.3,0.3-0.6,0.6-0.9,0.9c-0.3,0.3-0.6,0.5-0.4,1.1c0.2,0.5,0.5,0.8,1.1,0.8c3.2-0.1,3.1,0.6,3,3.2
		c0,1.3,0,2.7,0,4c0,1.3-0.6,1.8-1.8,1.8c-0.4,0-0.8,0-1.1,0c-0.5,0-0.9,0-1.1,0.6c-0.2,0.5-0.1,0.8,0.3,1.2c2.1,2.2,2,2.3,0,4.3
		c-1,1-1.9,2-2.9,2.9C56.5,65.4,56,65.6,55.4,66z M48.6,65c-0.2-2,0.8-3.1,2.5-3.8c1.8-0.8,3.2-0.4,4.4,0.9c0.7-0.7,1.4-1.3,2.2-2
		c-1.5-1.2-1.7-2.7-0.9-4.5c0.7-1.8,1.9-2.6,3.8-2.5c0-1,0-2,0-3c-1.6,0.1-2.8-0.5-3.5-2c-0.9-1.8-1.1-3.5,0.7-5
		c-0.7-0.7-1.4-1.4-2.1-2.1c-1.3,1.5-2.7,1.6-4.5,0.9c-1.8-0.7-2.6-1.9-2.5-3.8c-1.1,0-2,0-3,0c0.1,1.6-0.4,2.8-1.8,3.5
		c-1.9,0.9-3.6,1.3-5-0.5c-0.7,0.7-1.4,1.4-2.1,2.1c1.3,1.1,1.6,2.4,0.9,4.1c-0.7,1.8-1.8,3-3.9,2.8c0,1,0,2,0,2.9
		c4.1,0.5,5.3,3.6,3.1,6.9c0.7,0.7,1.3,1.4,1.9,2.1c1.7-1.4,2.4-1.5,4-1c1.9,0.6,3.2,1.7,3,4C46.6,65,47.5,65,48.6,65z"/>
	<path d="M58.7,13.7c0.2-1,0.5-1.9,0.7-2.9c13.9,3.7,23.9,12.1,30.3,24.8c6.4,12.6,6.9,25.8,2.4,39.2c0.7,0.3,1.3,0.5,1.9,0.8
		c1.3,0.6,1.4,2,0.2,2.7c-1.9,1.2-3.9,2.4-5.8,3.6c-1.1,0.6-2.1,0.2-2.4-1c-0.5-2.2-1-4.3-1.5-6.5c-0.3-1.3,0.8-2.2,2.1-1.8
		c0.8,0.3,1.6,0.6,2.6,1C93.5,61.1,93,48.8,87.1,37C81.1,25.1,71.8,17.1,58.7,13.7z M88.2,76.5c0.2,0.7,0.3,1.2,0.4,1.8
		c0.6-0.3,1.1-0.6,1.7-1C89.5,77,88.9,76.8,88.2,76.5z"/>
	<path d="M15.2,73.6c-0.8,0.6-1.5,1.1-2.4,1.8c-7.7-11.1-10-23.1-6-36c4-12.8,12.9-21.3,25.1-26.7c-0.3-0.9-0.7-1.7-0.8-2.6
		c-0.1-0.5,0-1.2,0.3-1.6c0.4-0.6,1-0.6,1.7-0.4c2.2,0.7,4.4,1.4,6.7,2.2c1.4,0.5,1.7,1.4,0.9,2.6c-1.3,1.9-2.6,3.8-3.9,5.6
		c-0.4,0.6-0.9,1-1.7,0.9c-0.8-0.1-1.1-0.7-1.3-1.3c-0.3-0.8-0.5-1.6-0.8-2.4C11,23.7-0.5,51.4,15.2,73.6z M35.8,14.7
		c0.5-0.7,0.9-1.3,1.4-2c-0.8-0.3-1.5-0.5-2.4-0.8C35.2,12.9,35.4,13.7,35.8,14.7z"/>
	<path d="M56,11c0,3.3-2.7,6-6,6c-3.3,0-6-2.7-6-6.1c0-3.3,2.7-5.9,6-5.9C53.4,5,56.1,7.7,56,11z M53,11c0-1.6-1.3-3-3-3
		c-1.6,0-3,1.3-3,2.9c0,1.7,1.3,3.1,3,3.1C51.7,14,53,12.6,53,11z"/>
	<path d="M26.1,81.5c0,3.3-2.7,6-6,6c-3.3,0-6-2.7-6-6c0-3.3,2.7-6,5.9-6C23.3,75.5,26,78.2,26.1,81.5z M23.1,81.5c0-1.6-1.3-3-3-3
		c-1.6,0-3,1.3-3,2.9c0,1.7,1.3,3.1,3,3.1C21.7,84.5,23,83.1,23.1,81.5z"/>
	<path d="M81.7,83c3.3,0.1,5.9,2.8,5.9,6.1c-0.1,3.3-2.8,5.9-6.2,5.8c-3.2-0.1-5.9-2.8-5.8-6.1C75.6,85.6,78.4,82.9,81.7,83z
		 M78.6,88.9c-0.1,1.6,1.2,3,2.8,3.1c1.7,0.1,3.1-1.2,3.2-2.9c0-1.6-1.3-3-2.9-3.1C80,85.9,78.6,87.2,78.6,88.9z"/>
	<path d="M66.7,62.5c-0.4,1.1-0.8,2.1-1.3,3.2c-1-0.5-1.8-0.9-2.7-1.3c0.4-1,0.7-1.8,1.1-2.8C64.8,61.9,65.7,62.1,66.7,62.5z"/>
	<path d="M54.5,51.5c0,4.1-3.4,7.5-7.6,7.5c-4.1,0-7.5-3.4-7.4-7.6c0-4.1,3.4-7.4,7.5-7.4C51.2,44,54.6,47.4,54.5,51.5z M51.6,51.5
		c0-2.5-2-4.5-4.5-4.5c-2.5,0-4.5,2-4.5,4.5c0,2.4,2,4.5,4.5,4.5C49.5,56,51.6,54,51.6,51.5z"/>
</g>
</svg>
