<svg width="230" height="62" viewBox="0 0 230 62" fill="none" xmlns="http://www.w3.org/2000/svg">
<path d="M39.3025 10.1261L39.2274 51.598L54.3583 51.6259L54.3706 48.2432L42.2665 48.2138L45.3071 47.4344L45.3669 14.3238L42.2864 13.5211L65.3278 13.563L62.2903 14.3409L62.2243 51.6398L68.2948 51.6507L68.3699 10.1788L39.3025 10.1261Z" fill="#1F1F1F"/>
<path d="M0.0736 10.061L0 51.5267L29.0613 51.5794L29.0935 36.4435L23.0215 36.4326L23 48.1782L3.0406 48.1425L6.07814 47.3615L6.10267 33.5087L3.0682 32.7215L29.0996 32.7757L29.1395 10.1122L0.0736 10.061ZM23.0353 29.3698L3.07587 29.3389L6.1134 28.561L6.13947 14.2479L3.105 13.4576L23.0629 13.4933L23.0353 29.3698Z" fill="#1F1F1F"/>
<path d="M84.267 0L84.2564 6.14082L90.333 6.15153L90.3436 0.0107178L84.267 0Z" fill="#1F1F1F"/>
<path d="M75.8295 10.1927L75.8172 13.5816L87.3142 13.6033L84.2766 14.3811L84.2184 47.5072L87.2528 48.2959L75.7605 48.2758L75.7482 51.6646L90.2827 51.691L90.3563 10.2191L75.8295 10.1927Z" fill="#1F1F1F"/>
<path d="M112.046 27.8955L112.035 34.0364L118.112 34.0471L118.123 27.9063L112.046 27.8955Z" fill="#1F1F1F"/>
<path d="M103.638 10.2454L100.513 10.2392L100.44 51.7111L129.507 51.7638L129.581 10.2919L103.64 10.2454H103.638ZM123.441 47.5986L126.459 48.3858L103.48 48.3285L106.518 47.549L106.576 14.4245L103.541 13.6343L126.535 13.6761L123.498 14.454L123.44 47.5971L123.441 47.5986Z" fill="#1F1F1F"/>
<path d="M100.537 0.029276L100.513 10.2392L103.638 10.2454L106.585 9.48611L106.596 4.19599L103.642 3.42432L126.555 3.46615L123.519 4.24402L123.514 6.87979L129.586 6.89064L129.597 0.0819604L100.537 0.029276Z" fill="#1F1F1F"/>
<path d="M126.386 51.7591L123.433 52.52L123.424 57.7946L126.457 58.5833L103.462 58.5415L106.544 57.7527L106.548 55.1449L100.433 55.1325L100.427 61.9257L129.487 61.9783L129.505 51.7638L126.386 51.7591Z" fill="#1F1F1F"/>
<path d="M190.698 51.8769L190.773 10.405L175.642 10.3771L175.63 13.7598L187.734 13.7877L184.693 14.5686L184.633 47.6776L187.714 48.4818L164.672 48.44L167.71 47.6621L167.776 10.3632L161.705 10.3523L161.63 51.8242L190.698 51.8769Z" fill="#1F1F1F"/>
<path d="M229.926 51.942L230 10.4763L200.939 10.4236L200.907 25.5595L206.979 25.5704L207 13.8249L226.959 13.8605L223.922 14.6415L223.897 28.4944L226.932 29.2815L200.9 29.2273L200.861 51.8908L229.928 51.9435L229.926 51.942ZM206.965 32.6332L226.924 32.6642L223.887 33.442L223.861 47.7551L226.895 48.5454L206.937 48.5098L206.965 32.6332Z" fill="#1F1F1F"/>
<path d="M139.656 55.8485L139.645 61.9893L145.722 62L145.732 55.8592L139.656 55.8485Z" fill="#1F1F1F"/>
<path d="M154.171 51.8103L154.183 48.4214L142.686 48.3997L145.724 47.6203L145.782 14.4958L142.747 13.7071L154.24 13.7272L154.252 10.3384L139.717 10.3121L139.644 51.7839L154.171 51.8103Z" fill="#1F1F1F"/>
</svg>
