<svg width="33" height="21" viewBox="0 0 33 21" fill="none" xmlns="http://www.w3.org/2000/svg">
<path d="M0.0373528 0L0 20.9733L14.7489 21L14.7653 13.3443L11.6836 13.3388L11.6728 19.2796L1.54314 19.2616L3.08472 18.8666L3.09717 11.8598L1.55714 11.4617L14.7684 11.4891L14.7886 0.025864L0.0373528 0ZM11.6906 9.7664L1.56104 9.75072L3.10262 9.35728L3.11585 2.11771L1.57582 1.718L11.7047 1.73602L11.6906 9.7664Z" fill="black"/>
<path d="M32.1733 21L32.2107 0.0266571L17.4618 1.14441e-05L17.4454 7.65575L20.527 7.66124L20.5379 1.72035L30.6676 1.73838L29.126 2.1334L29.1135 9.14019L30.6535 9.53834L17.4423 9.5109L17.4221 20.9741L32.1733 21ZM20.52 11.2336L30.6497 11.2493L29.1081 11.6427L29.0948 18.8823L30.6349 19.282L20.506 19.264L20.52 11.2336Z" fill="black"/>
</svg>
