<svg stroke="#1059df" fill="none" viewBox="0 0 55 43" xmlns="http://www.w3.org/2000/svg">
                                    <path d="M5.99896 6.82256L13.5247 5.53845V32.7692L10.9976 33.3139C7.69143 34.0265 4.44992 31.867 3.83386 28.5415L1.10852 13.83C0.49886 10.539 2.69967 7.38551 5.99896 6.82256Z" strokeWidth="2" />
                                    <path d="M49.001 6.82256L41.4753 5.53845V32.7692L44.0024 33.3139C47.3086 34.0265 50.5501 31.867 51.1661 28.5415L53.8915 13.83C54.5011 10.539 52.3003 7.38551 49.001 6.82256Z" strokeWidth="2" />
                                    <g filter="url(#filter0_dd_25_3290)">
                                        <rect x="12.6226" width="29.7544" height="36" rx="6" />
                                        <rect x="13.6226" y="1" width="27.7544" height="34" rx="5" strokeWidth="2" />
                                    </g>
                                    <path d="M36.3769 35H18.6226C15.8611 35 13.6226 32.7614 13.6226 30V28.4605L12.8873 27.7827L13.6226 28.4605L23.1497 18.1243L30.2892 26.5354C31.0913 27.4804 32.5509 27.4757 33.347 26.5257L37.1281 22.0133L41.3769 26.6939V30C41.3769 32.7614 39.1384 35 36.3769 35Z" strokeWidth="2" />
                                    <path d="M34.1646 11.5384C34.1646 13.3025 32.7738 14.6922 31.1072 14.6922C29.4407 14.6922 28.0498 13.3025 28.0498 11.5384C28.0498 9.77427 29.4407 8.38452 31.1072 8.38452C32.7738 8.38452 34.1646 9.77427 34.1646 11.5384Z" strokeWidth="2" />
                                    <!-- <defs>
                                        <filter id="filter0_dd_25_3290" x="9.62256" y="0" width="35.7544" height="43" filterUnits="userSpaceOnUse" colorInterpolationFilters="sRGB">
                                            <feFlood floodOpacity="0" result="BackgroundImageFix" />
                                            <feColorMatrix in="SourceAlpha" type="matrix" values="0 0 0 0 0 0 0 0 0 0 0 0 0 0 0 0 0 0 127 0" result="hardAlpha" />
                                            <feOffset dy="2" />
                                            <feGaussianBlur stdDeviation="1" />
                                            <feComposite in2="hardAlpha" operator="out" />
                                            <feColorMatrix type="matrix" values="0 0 0 0 0 0 0 0 0 0 0 0 0 0 0 0 0 0 0.06 0" />
                                            <feBlend mode="normal" in2="BackgroundImageFix" result="effect1_dropShadow_25_3290" />
                                            <feColorMatrix in="SourceAlpha" type="matrix" values="0 0 0 0 0 0 0 0 0 0 0 0 0 0 0 0 0 0 127 0" result="hardAlpha" />
                                            <feOffset dy="4" />
                                            <feGaussianBlur stdDeviation="1.5" />
                                            <feComposite in2="hardAlpha" operator="out" />
                                            <feColorMatrix type="matrix" values="0 0 0 0 0 0 0 0 0 0 0 0 0 0 0 0 0 0 0.07 0" />
                                            <feBlend mode="normal" in2="effect1_dropShadow_25_3290" result="effect2_dropShadow_25_3290" />
                                            <feBlend mode="normal" in="SourceGraphic" in2="effect2_dropShadow_25_3290" result="shape" />
                                        </filter>
                                    </defs> -->
                                </svg>